<?xml version="1.0" encoding="UTF-8" standalone="no"?>
<svg
   width="100%"
   height="100%"
   viewBox="0 0 180 50"
   version="1.1"
   xml:space="preserve"
   style="fill-rule:evenodd;clip-rule:evenodd;stroke-linejoin:round;stroke-miterlimit:2;"
   id="svg67"
   sodipodi:docname="logo.svg"
   inkscape:version="1.1.1 (3bf5ae0d25, 2021-09-20)"
   xmlns:inkscape="http://www.inkscape.org/namespaces/inkscape"
   xmlns:sodipodi="http://sodipodi.sourceforge.net/DTD/sodipodi-0.dtd"
   xmlns="http://www.w3.org/2000/svg"
   xmlns:svg="http://www.w3.org/2000/svg"><defs
   id="defs71" /><sodipodi:namedview
   id="namedview69"
   pagecolor="#ffffff"
   bordercolor="#666666"
   borderopacity="1.0"
   inkscape:pageshadow="2"
   inkscape:pageopacity="0.0"
   inkscape:pagecheckerboard="0"
   showgrid="false"
   inkscape:zoom="6.1222222"
   inkscape:cx="89.918331"
   inkscape:cy="25.072595"
   inkscape:window-width="2560"
   inkscape:window-height="1537"
   inkscape:window-x="-8"
   inkscape:window-y="-8"
   inkscape:window-maximized="1"
   inkscape:current-layer="svg67" />
    <g
   transform="matrix(0.35052,0,0,0.35052,-95.9121,-124.969)"
   id="g22"
   style="fill:#284646;fill-opacity:1">
        <g
   transform="matrix(50,0,0,50,340.961,425.835)"
   id="g4"
   style="fill:#284646;fill-opacity:1">
            <path
   d="M0.064,-0.36C0.064,-0.413 0.072,-0.461 0.089,-0.504C0.106,-0.547 0.129,-0.584 0.16,-0.615C0.19,-0.646 0.226,-0.67 0.269,-0.687C0.311,-0.704 0.358,-0.712 0.409,-0.712C0.449,-0.712 0.488,-0.707 0.525,-0.698C0.562,-0.689 0.597,-0.674 0.629,-0.655L0.608,-0.622C0.58,-0.64 0.549,-0.653 0.515,-0.662C0.48,-0.671 0.445,-0.675 0.409,-0.675C0.364,-0.675 0.322,-0.667 0.285,-0.652C0.248,-0.637 0.216,-0.615 0.189,-0.588C0.162,-0.561 0.141,-0.528 0.126,-0.489C0.111,-0.45 0.104,-0.407 0.104,-0.36C0.104,-0.309 0.111,-0.262 0.125,-0.221C0.139,-0.18 0.159,-0.145 0.186,-0.116C0.212,-0.086 0.244,-0.064 0.281,-0.049C0.319,-0.033 0.362,-0.025 0.409,-0.025C0.447,-0.025 0.483,-0.029 0.517,-0.038C0.55,-0.047 0.578,-0.059 0.601,-0.074L0.601,-0.315L0.381,-0.315L0.381,-0.352L0.64,-0.352L0.64,-0.053C0.609,-0.032 0.574,-0.016 0.534,-0.005C0.494,0.006 0.452,0.012 0.409,0.012C0.356,0.012 0.308,0.003 0.265,-0.014C0.222,-0.031 0.186,-0.056 0.157,-0.089C0.127,-0.121 0.104,-0.16 0.088,-0.205C0.072,-0.251 0.064,-0.303 0.064,-0.36Z"
   style="fill-rule:nonzero;fill:#284646;fill-opacity:1"
   id="path2" />
        </g>
        <g
   transform="matrix(50,0,0,50,392.161,425.835)"
   id="g8"
   style="fill:#284646;fill-opacity:1">
            <path
   d="M0.094,-0.7L0.134,-0.7L0.134,-0.375L0.561,-0.375L0.561,-0.7L0.601,-0.7L0.601,-0L0.561,-0L0.561,-0.339L0.134,-0.339L0.134,-0L0.094,-0L0.094,-0.7Z"
   style="fill-rule:nonzero;fill:#284646;fill-opacity:1"
   id="path6" />
        </g>
        <g
   transform="matrix(50,0,0,50,441.911,425.835)"
   id="g12"
   style="fill:#284646;fill-opacity:1">
            <path
   d="M0.064,-0.356C0.064,-0.411 0.073,-0.46 0.091,-0.504C0.109,-0.548 0.134,-0.586 0.165,-0.617C0.196,-0.648 0.232,-0.671 0.273,-0.688C0.314,-0.704 0.358,-0.712 0.405,-0.712C0.452,-0.712 0.496,-0.704 0.537,-0.688C0.578,-0.671 0.615,-0.648 0.646,-0.617C0.677,-0.586 0.701,-0.548 0.719,-0.504C0.737,-0.46 0.746,-0.411 0.746,-0.356C0.746,-0.298 0.737,-0.246 0.72,-0.201C0.702,-0.155 0.678,-0.116 0.647,-0.085C0.616,-0.054 0.579,-0.03 0.538,-0.013C0.497,0.004 0.452,0.012 0.405,0.012C0.358,0.012 0.313,0.004 0.272,-0.013C0.231,-0.03 0.195,-0.054 0.164,-0.085C0.133,-0.116 0.108,-0.155 0.091,-0.201C0.073,-0.246 0.064,-0.298 0.064,-0.356ZM0.104,-0.356C0.104,-0.304 0.112,-0.258 0.128,-0.217C0.143,-0.175 0.165,-0.141 0.192,-0.113C0.219,-0.084 0.251,-0.063 0.288,-0.048C0.325,-0.033 0.364,-0.025 0.405,-0.025C0.446,-0.025 0.485,-0.033 0.522,-0.048C0.559,-0.063 0.591,-0.084 0.618,-0.113C0.645,-0.141 0.666,-0.175 0.682,-0.217C0.697,-0.258 0.705,-0.304 0.705,-0.356C0.705,-0.405 0.697,-0.449 0.681,-0.489C0.665,-0.528 0.643,-0.562 0.616,-0.589C0.589,-0.616 0.557,-0.637 0.521,-0.653C0.484,-0.668 0.446,-0.675 0.405,-0.675C0.364,-0.675 0.325,-0.668 0.289,-0.653C0.252,-0.637 0.22,-0.616 0.193,-0.589C0.166,-0.562 0.144,-0.528 0.128,-0.489C0.112,-0.449 0.104,-0.405 0.104,-0.356Z"
   style="fill-rule:nonzero;fill:#284646;fill-opacity:1"
   id="path10" />
        </g>
        <g
   transform="matrix(50,0,0,50,496.411,425.835)"
   id="g16"
   style="fill:#284646;fill-opacity:1">
            <path
   d="M0.082,-0.09C0.107,-0.073 0.139,-0.058 0.178,-0.045C0.216,-0.032 0.258,-0.025 0.305,-0.025C0.339,-0.025 0.369,-0.029 0.394,-0.037C0.419,-0.044 0.439,-0.055 0.455,-0.068C0.471,-0.081 0.483,-0.096 0.491,-0.114C0.499,-0.132 0.503,-0.152 0.503,-0.173C0.503,-0.202 0.497,-0.225 0.485,-0.244C0.472,-0.262 0.456,-0.277 0.436,-0.289C0.415,-0.3 0.392,-0.31 0.367,-0.317C0.341,-0.324 0.315,-0.33 0.288,-0.337C0.261,-0.344 0.234,-0.351 0.209,-0.359C0.183,-0.367 0.16,-0.378 0.14,-0.393C0.119,-0.407 0.103,-0.425 0.091,-0.447C0.078,-0.469 0.072,-0.497 0.072,-0.531C0.072,-0.556 0.077,-0.58 0.087,-0.602C0.098,-0.624 0.113,-0.643 0.132,-0.66C0.151,-0.676 0.175,-0.689 0.203,-0.698C0.232,-0.707 0.264,-0.712 0.3,-0.712C0.347,-0.712 0.389,-0.707 0.425,-0.698C0.461,-0.688 0.492,-0.676 0.517,-0.663L0.499,-0.628C0.476,-0.64 0.447,-0.651 0.413,-0.661C0.38,-0.67 0.342,-0.675 0.3,-0.675C0.271,-0.675 0.245,-0.671 0.222,-0.664C0.199,-0.657 0.179,-0.647 0.163,-0.633C0.147,-0.621 0.135,-0.605 0.126,-0.588C0.117,-0.571 0.113,-0.552 0.113,-0.531C0.113,-0.502 0.119,-0.478 0.132,-0.46C0.144,-0.442 0.16,-0.427 0.181,-0.416C0.201,-0.405 0.224,-0.396 0.25,-0.389C0.275,-0.382 0.302,-0.375 0.329,-0.369C0.356,-0.362 0.382,-0.355 0.407,-0.347C0.433,-0.339 0.456,-0.328 0.476,-0.314C0.497,-0.299 0.513,-0.281 0.526,-0.259C0.538,-0.237 0.544,-0.209 0.544,-0.174C0.544,-0.147 0.539,-0.123 0.53,-0.1C0.52,-0.077 0.505,-0.058 0.486,-0.041C0.466,-0.024 0.441,-0.011 0.411,-0.002C0.381,0.007 0.346,0.012 0.305,0.012C0.254,0.012 0.207,0.005 0.165,-0.009C0.122,-0.022 0.088,-0.038 0.061,-0.057L0.082,-0.09Z"
   style="fill-rule:nonzero;fill:#284646;fill-opacity:1"
   id="path14" />
        </g>
        <g
   transform="matrix(50,0,0,50,541.261,425.835)"
   id="g20"
   style="fill:#284646;fill-opacity:1">
            <path
   d="M0.301,-0.663L0.033,-0.663L0.033,-0.7L0.609,-0.7L0.609,-0.663L0.341,-0.663L0.341,-0L0.301,-0L0.301,-0.663Z"
   style="fill-rule:nonzero;fill:#284646;fill-opacity:1"
   id="path18" />
        </g>
    </g>
    <g
   transform="matrix(0.35052,0,0,0.35052,-2.8861,-124.969)"
   id="g40"
   style="fill:#284646;fill-opacity:1">
        <g
   transform="matrix(50,0,0,50,340.961,425.835)"
   id="g26"
   style="fill:#284646;fill-opacity:1">
            <path
   d="M0.094,-0.7L0.141,-0.7L0.582,-0.055L0.582,-0.7L0.622,-0.7L0.622,-0L0.574,-0L0.134,-0.644L0.134,-0L0.094,-0L0.094,-0.7Z"
   style="fill-rule:nonzero;fill:#284646;fill-opacity:1"
   id="path24" />
        </g>
        <g
   transform="matrix(50,0,0,50,391.761,425.835)"
   id="g30"
   style="fill:#284646;fill-opacity:1">
            <path
   d="M0.064,-0.356C0.064,-0.411 0.073,-0.46 0.091,-0.504C0.109,-0.548 0.134,-0.586 0.165,-0.617C0.196,-0.648 0.232,-0.671 0.273,-0.688C0.314,-0.704 0.358,-0.712 0.405,-0.712C0.452,-0.712 0.496,-0.704 0.537,-0.688C0.578,-0.671 0.615,-0.648 0.646,-0.617C0.677,-0.586 0.701,-0.548 0.719,-0.504C0.737,-0.46 0.746,-0.411 0.746,-0.356C0.746,-0.298 0.737,-0.246 0.72,-0.201C0.702,-0.155 0.678,-0.116 0.647,-0.085C0.616,-0.054 0.579,-0.03 0.538,-0.013C0.497,0.004 0.452,0.012 0.405,0.012C0.358,0.012 0.313,0.004 0.272,-0.013C0.231,-0.03 0.195,-0.054 0.164,-0.085C0.133,-0.116 0.108,-0.155 0.091,-0.201C0.073,-0.246 0.064,-0.298 0.064,-0.356ZM0.104,-0.356C0.104,-0.304 0.112,-0.258 0.128,-0.217C0.143,-0.175 0.165,-0.141 0.192,-0.113C0.219,-0.084 0.251,-0.063 0.288,-0.048C0.325,-0.033 0.364,-0.025 0.405,-0.025C0.446,-0.025 0.485,-0.033 0.522,-0.048C0.559,-0.063 0.591,-0.084 0.618,-0.113C0.645,-0.141 0.666,-0.175 0.682,-0.217C0.697,-0.258 0.705,-0.304 0.705,-0.356C0.705,-0.405 0.697,-0.449 0.681,-0.489C0.665,-0.528 0.643,-0.562 0.616,-0.589C0.589,-0.616 0.557,-0.637 0.521,-0.653C0.484,-0.668 0.446,-0.675 0.405,-0.675C0.364,-0.675 0.325,-0.668 0.289,-0.653C0.252,-0.637 0.22,-0.616 0.193,-0.589C0.166,-0.562 0.144,-0.528 0.128,-0.489C0.112,-0.449 0.104,-0.405 0.104,-0.356Z"
   style="fill-rule:nonzero;fill:#284646;fill-opacity:1"
   id="path28" />
        </g>
        <g
   transform="matrix(50,0,0,50,444.511,425.835)"
   id="g34"
   style="fill:#284646;fill-opacity:1">
            <path
   d="M0.301,-0.663L0.033,-0.663L0.033,-0.7L0.609,-0.7L0.609,-0.663L0.341,-0.663L0.341,-0L0.301,-0L0.301,-0.663Z"
   style="fill-rule:nonzero;fill:#284646;fill-opacity:1"
   id="path32" />
        </g>
        <g
   transform="matrix(50,0,0,50,491.561,425.835)"
   id="g38"
   style="fill:#284646;fill-opacity:1">
            <path
   d="M0.094,-0.7L0.555,-0.7L0.555,-0.663L0.134,-0.663L0.134,-0.375L0.514,-0.375L0.514,-0.339L0.134,-0.339L0.134,-0.037L0.561,-0.037L0.561,-0L0.094,-0L0.094,-0.7Z"
   style="fill-rule:nonzero;fill:#284646;fill-opacity:1"
   id="path36" />
        </g>
    </g>
    <g
   transform="matrix(0.35052,0,0,0.35052,-162.158,-156.524)"
   id="g62"
   style="fill:#284646;fill-opacity:1">
        <g
   transform="matrix(37.5,0,0,37.5,531.655,579.153)"
   id="g44"
   style="fill:#284646;fill-opacity:1">
            <path
   d="M0.306,-0.7L0.382,-0.7L0.652,-0L0.588,-0L0.517,-0.189L0.171,-0.189L0.101,-0L0.037,-0L0.306,-0.7ZM0.191,-0.242L0.497,-0.242L0.345,-0.65L0.343,-0.65L0.191,-0.242Z"
   style="fill-rule:nonzero;fill:#284646;fill-opacity:1"
   id="path42" />
        </g>
        <g
   transform="matrix(37.5,0,0,37.5,567.693,579.153)"
   id="g48"
   style="fill:#284646;fill-opacity:1">
            <path
   d="M0.089,-0.7L0.147,-0.7L0.147,-0.256C0.147,-0.221 0.153,-0.19 0.164,-0.163C0.174,-0.136 0.19,-0.114 0.209,-0.096C0.228,-0.078 0.25,-0.064 0.276,-0.055C0.301,-0.046 0.328,-0.041 0.357,-0.041C0.386,-0.041 0.413,-0.046 0.439,-0.055C0.464,-0.064 0.487,-0.078 0.506,-0.096C0.525,-0.114 0.541,-0.136 0.552,-0.163C0.563,-0.19 0.568,-0.221 0.568,-0.256L0.568,-0.7L0.626,-0.7L0.626,-0.256C0.626,-0.212 0.619,-0.173 0.605,-0.14C0.591,-0.106 0.572,-0.078 0.547,-0.056C0.522,-0.033 0.494,-0.016 0.461,-0.005C0.428,0.006 0.394,0.012 0.357,0.012C0.32,0.012 0.285,0.006 0.253,-0.005C0.22,-0.016 0.192,-0.033 0.168,-0.056C0.143,-0.078 0.124,-0.106 0.11,-0.14C0.096,-0.173 0.089,-0.212 0.089,-0.256L0.089,-0.7Z"
   style="fill-rule:nonzero;fill:#284646;fill-opacity:1"
   id="path46" />
        </g>
        <g
   transform="matrix(37.5,0,0,37.5,605.755,579.153)"
   id="g52"
   style="fill:#284646;fill-opacity:1">
            <path
   d="M0.091,-0.7L0.282,-0.7C0.342,-0.7 0.395,-0.692 0.441,-0.676C0.487,-0.66 0.526,-0.637 0.557,-0.607C0.588,-0.577 0.612,-0.541 0.628,-0.498C0.645,-0.455 0.653,-0.406 0.653,-0.353C0.653,-0.298 0.645,-0.248 0.63,-0.205C0.615,-0.162 0.592,-0.125 0.561,-0.094C0.53,-0.063 0.491,-0.04 0.445,-0.024C0.398,-0.008 0.344,-0 0.282,-0L0.091,-0L0.091,-0.7ZM0.282,-0.053C0.334,-0.053 0.38,-0.06 0.419,-0.074C0.458,-0.087 0.49,-0.107 0.516,-0.133C0.541,-0.159 0.561,-0.191 0.574,-0.228C0.587,-0.265 0.593,-0.306 0.593,-0.353C0.593,-0.398 0.586,-0.439 0.573,-0.475C0.559,-0.512 0.539,-0.543 0.513,-0.568C0.486,-0.593 0.454,-0.613 0.415,-0.626C0.376,-0.64 0.332,-0.647 0.282,-0.647L0.149,-0.647L0.149,-0.053L0.282,-0.053Z"
   style="fill-rule:nonzero;fill:#284646;fill-opacity:1"
   id="path50" />
        </g>
        <g
   transform="matrix(37.5,0,0,37.5,643.668,579.153)"
   id="g56"
   style="fill:#284646;fill-opacity:1">
            <rect
   x="0.091"
   y="-0.7"
   width="0.058"
   height="0.7"
   style="fill-rule:nonzero;fill:#284646;fill-opacity:1"
   id="rect54" />
        </g>
        <g
   transform="matrix(37.5,0,0,37.5,663.955,579.153)"
   id="g60"
   style="fill:#284646;fill-opacity:1">
            <path
   d="M0.061,-0.356C0.061,-0.412 0.07,-0.462 0.089,-0.506C0.107,-0.55 0.132,-0.587 0.164,-0.618C0.195,-0.649 0.232,-0.672 0.274,-0.688C0.315,-0.704 0.359,-0.712 0.406,-0.712C0.453,-0.712 0.497,-0.704 0.539,-0.688C0.581,-0.672 0.618,-0.649 0.65,-0.618C0.681,-0.587 0.706,-0.55 0.725,-0.506C0.743,-0.462 0.752,-0.412 0.752,-0.356C0.752,-0.298 0.743,-0.246 0.725,-0.201C0.706,-0.155 0.681,-0.116 0.65,-0.085C0.619,-0.053 0.582,-0.029 0.54,-0.013C0.498,0.004 0.453,0.012 0.406,0.012C0.359,0.012 0.314,0.004 0.273,-0.013C0.231,-0.029 0.194,-0.053 0.163,-0.085C0.132,-0.116 0.107,-0.155 0.089,-0.201C0.07,-0.246 0.061,-0.298 0.061,-0.356ZM0.121,-0.356C0.121,-0.306 0.129,-0.261 0.143,-0.222C0.159,-0.183 0.179,-0.15 0.205,-0.123C0.231,-0.096 0.261,-0.076 0.296,-0.062C0.331,-0.048 0.367,-0.041 0.406,-0.041C0.445,-0.041 0.481,-0.048 0.516,-0.062C0.551,-0.076 0.581,-0.096 0.607,-0.123C0.633,-0.15 0.654,-0.183 0.669,-0.222C0.684,-0.261 0.692,-0.306 0.692,-0.356C0.692,-0.403 0.684,-0.446 0.669,-0.484C0.654,-0.521 0.633,-0.553 0.607,-0.579C0.581,-0.605 0.551,-0.625 0.516,-0.639C0.481,-0.652 0.445,-0.659 0.406,-0.659C0.367,-0.659 0.331,-0.652 0.297,-0.639C0.262,-0.625 0.232,-0.605 0.206,-0.579C0.18,-0.553 0.159,-0.521 0.144,-0.484C0.129,-0.446 0.121,-0.403 0.121,-0.356Z"
   style="fill-rule:nonzero;fill:#284646;fill-opacity:1"
   id="path58" />
        </g>
    </g>
    <g
   id="path2986-1"
   transform="matrix(0.146091,0,0,0.146091,-46.3782,-51.8698)"
   style="fill:#284646;fill-opacity:1">
        <path
   d="m 414.37,453.28 c -0.271,22.337 -37.865,44.111 -36.624,83.655 0.784,24.977 27.218,57.436 46.03,80.952 -9.406,-4.703 -18.817,-9.012 -32.921,-9.406 -28.303,-0.79 -43.029,18.259 -37.624,37.624 4.178,14.969 8.23,19.646 14.109,28.218 -30.171,-16.426 -47.184,-37.825 -44.443,-56.436 4.24,-28.795 30.891,-42.095 53.05,-39.976 -23.515,-23.515 -40.894,-47.468 -41.058,-70.31 -0.18,-25.172 25.103,-53.707 30.451,-67.429 2.527,-6.483 2.193,-12.322 2,-15.109 -1.341,-19.352 -9.406,-32.921 -14.109,-47.03 18.812,23.515 61.139,57.612 61.139,74.306 z"
   id="path64"
   style="fill:#284646;fill-opacity:1" />
    </g>
</svg>
